<?xml version="1.0" encoding="utf-8"?>
<!-- Generator: Adobe Illustrator 21.0.0, SVG Export Plug-In . SVG Version: 6.00 Build 0)  -->
<svg version="1.1" id="Calque_1" xmlns:sketch="http://www.bohemiancoding.com/sketch/ns"
	 xmlns="http://www.w3.org/2000/svg" xmlns:xlink="http://www.w3.org/1999/xlink" x="0px" y="0px" viewBox="0 0 91 113.8"
	 style="enable-background:new 0 0 91 113.8;" xml:space="preserve">
<title>rect23190</title>
<desc>Created with Sketch.</desc>
<g sketch:type="MSPage">
	<path sketch:type="MSShapeGroup" d="M22.6,0.8v7.5h7.5h7.5h7.5h7.5h7.5h7.5V0.8h-7.5h-7.5h-7.5h-7.5h-7.5H22.6L22.6,0.8z M67.6,8.3
		v7.5h7.5V8.3H67.6L67.6,8.3z M75.1,15.8v7.5h7.5v-7.5H75.1L75.1,15.8z M82.6,23.3v7.5v7.5v7.5v7.5v7.5v7.5h7.5v-7.5v-7.5v-7.5v-7.5
		v-7.5v-7.5H82.6L82.6,23.3z M82.6,68.3h-7.5v7.5h7.5V68.3L82.6,68.3z M75.1,75.8h-7.5v7.5h7.5V75.8L75.1,75.8z M67.6,83.3h-7.5
		h-7.5h-7.5h-7.5h-7.5h-7.5v7.5h7.5h7.5h7.5h7.5h7.5h7.5V83.3L67.6,83.3z M22.6,83.3v-7.5h-7.5v7.5H22.6L22.6,83.3z M15.1,75.8v-7.5
		H7.6v7.5H15.1L15.1,75.8z M7.6,68.3v-7.5v-7.5v-7.5v-7.5v-7.5v-7.5H0.1v7.5v7.5v7.5v7.5v7.5v7.5H7.6L7.6,68.3z M7.6,23.3h7.5v-7.5
		H7.6V23.3L7.6,23.3z M15.1,15.8h7.5V8.3h-7.5V15.8L15.1,15.8z M22.6,23.3v7.5v7.5v7.5v7.5v7.5v7.5h7.5h7.5v-7.5v-7.5v-7.5v-7.5
		v-7.5v-7.5h-7.5H22.6L22.6,23.3z M52.6,23.3v7.5v7.5v7.5v7.5v7.5v7.5h7.5h7.5v-7.5v-7.5v-7.5v-7.5v-7.5v-7.5h-7.5H52.6L52.6,23.3z"
		/>
</g>
</svg>
