<?xml version="1.0" encoding="utf-8"?>
<!-- Generator: Adobe Illustrator 21.0.0, SVG Export Plug-In . SVG Version: 6.00 Build 0)  -->
<svg version="1.1" id="Calque_1" xmlns="http://www.w3.org/2000/svg" xmlns:xlink="http://www.w3.org/1999/xlink" x="0px" y="0px"
	 viewBox="0 0 100 125" style="enable-background:new 0 0 100 125;" xml:space="preserve">
<style type="text/css">
	.st0{fill:#FFFFFF;}
</style>
<g>
	<g id="XMLID_1_">
		<g>
			<polygon class="st0" points="81,27.3 81,81 72,81 72,72 63,72 63,63 72,63 72,36 63,36 63,27 72,27 72,18 81,18 			"/>
			<rect x="54" y="54" class="st0" width="9" height="9"/>
			<rect x="54" y="36" class="st0" width="9" height="9"/>
			<polygon class="st0" points="54,45 54,54 45,54 45,81 36,81 36,72 36,63 36,36 36,27 36,18 45,18 45,27.3 45,45 			"/>
		</g>
		<g>
		</g>
	</g>
</g>
</svg>
