<?xml version="1.0" encoding="utf-8"?>
<!-- Generator: Adobe Illustrator 21.0.0, SVG Export Plug-In . SVG Version: 6.00 Build 0)  -->
<svg version="1.1" id="Calque_1" xmlns:sketch="http://www.bohemiancoding.com/sketch/ns"
	 xmlns="http://www.w3.org/2000/svg" xmlns:xlink="http://www.w3.org/1999/xlink" x="0px" y="0px" viewBox="0 0 91 113.8"
	 style="enable-background:new 0 0 91 113.8;" xml:space="preserve">
<title>rect23254</title>
<desc>Created with Sketch.</desc>
<g sketch:type="MSPage">
	<path sketch:type="MSShapeGroup" d="M23,0.8v7.5h7.5H38h7.5H53h7.5H68V0.8h-7.5H53h-7.5H38h-7.5H23L23,0.8z M68,8.3v7.5h7.5V8.3H68
		L68,8.3z M75.5,15.8v7.5H83v-7.5H75.5L75.5,15.8z M83,23.3v7.5v7.5v7.5v7.5v7.5v7.5h7.5v-7.5v-7.5v-7.5v-7.5v-7.5v-7.5H83L83,23.3z
		 M83,68.3h-7.5v7.5H83V68.3L83,68.3z M75.5,75.8H68v7.5h7.5V75.8L75.5,75.8z M68,83.3h-7.5H53h-7.5H38h-7.5H23v7.5h7.5H38h7.5H53
		h7.5H68V83.3L68,83.3z M23,83.3v-7.5h-7.5v7.5H23L23,83.3z M15.5,75.8v-7.5H8v7.5H15.5L15.5,75.8z M8,68.3v-7.5v-7.5v-7.5v-7.5
		v-7.5v-7.5H0.5v7.5v7.5v7.5v7.5v7.5v7.5H8L8,68.3z M8,23.3h7.5v-7.5H8V23.3L8,23.3z M15.5,15.8H23V8.3h-7.5V15.8L15.5,15.8z
		 M30.5,15.8v7.5v7.5v7.5v7.5v7.5v7.5v7.5v7.5H38v-7.5h7.5v-7.5H53v-7.5h7.5v-7.5v-7.5H53v-7.5h-7.5v-7.5H38v-7.5H30.5L30.5,15.8z"
		/>
</g>
</svg>
